<svg id="logo2_Image" data-name="logo2 Image" xmlns="http://www.w3.org/2000/svg"
    viewBox="0 0 439.68 106.32">
    <defs>
        <style>
            .cls-1{fill:#fefefe;}.cls-2{fill:#3d2e5e;}.cls-3{fill:#fdfdfd;}.cls-4{fill:#423463;}
        </style>
    </defs>
    <title>Artboard 1</title>
    <path class="cls-1"
        d="M439.44,106.32V.3c-.46,0-.84-.06-1.23-.06H334.62c-.32,0-.64,0-1,0-.48,0-1,0-1.44,0H144.64c-.48,0-1,0-1.44,0-.24,0-.48,0-.72,0H0C0,.16.07,0,.12,0,.4,0,.68,0,1,0H439.68q0,52.65,0,105.24A5.21,5.21,0,0,1,439.44,106.32Z" />
    <path class="cls-2"
        d="M337.5,7C344,7,350.44,7,356.92,7a28.73,28.73,0,0,1,3.93.27,9.24,9.24,0,0,1,5.59,3c.81.88,1.6,1.77,2.51,2.78.56-.79.94-1.34,1.33-1.87a10.47,10.47,0,0,1,15.77-1.43c3.13,3,6.41,5.9,8.21,10.39.83-1.3,1.52-2.33,2.16-3.4.92-1.55,1.79-3.11,2.69-4.67a10,10,0,0,1,8.24-5.25,9.5,9.5,0,0,1,7,2.14,61,61,0,0,1,6.74,6.61c2.93,3.47,3.06,7.8.68,11.7-4.09,6.71-8.25,13.38-12.31,20.1a5.46,5.46,0,0,0-.76,2.66c-.07,5.39,0,10.77-.05,16.16-.05,4.93-2.45,8.42-6.64,9.77a10.91,10.91,0,0,1-11-2,66.88,66.88,0,0,1-5.61-5.56c-1.83-2-2.3-4.52-2.32-7.12-.05-5.42,0-10.85,0-16.27a3.61,3.61,0,0,0-.43-1.81c-3.11-5.1-6.28-10.18-9.43-15.26a7.8,7.8,0,0,0-.52-.65c-2.81,5.23-7.62,5.72-12.91,5.41v1.65q0,15.5,0,31a19.61,19.61,0,0,1-.28,3.33c-.74,4.17-3.49,6.45-7.38,7.62-4.8,1-8.71-.57-11.95-4.11-.73-.79-1.49-1.57-2.29-2.28a11.3,11.3,0,0,1-3.7-8.88c0-8.94,0-17.88,0-26.81,0-1.07-.15-1.65-1.38-1.8a9.3,9.3,0,0,1-5.58-3c-1-1-1.88-2-2.82-3l-.35.2v1.25q0,19.16,0,38.31c0,5.67-3,9.28-8.54,10.28A11.08,11.08,0,0,1,305.27,73c-1.37-1.37-2.72-2.76-4.23-4.29a10.6,10.6,0,0,1-6.27,7,10.87,10.87,0,0,1-12.07-2.27,36.3,36.3,0,0,1-8.77-11.83A14.68,14.68,0,0,0,272,58.47c0,2.12.05,4.25,0,6.37a22.11,22.11,0,0,1-.4,4.15c-1,4.3-3.64,6.64-8,7.15s-8.09-.46-11.07-3.82c-.89-1-1.87-2-2.91-3-.22.46-.37.74-.49,1-2.73,6.17-12,8.65-17.21,3.59-1.55-1.51-3.15-3-4.55-4.6A20,20,0,0,1,225,65.56c-.32-.58-.54-1-1.29-.94-3.44,0-6.88,0-10.31,0a1.5,1.5,0,0,0-1.09.76c-.68,1.44-1.22,2.94-1.84,4.41-3.33,8-11.66,8.4-17.09,3.84-1.58-1.33-3-2.85-4.52-4.32a20,20,0,0,1-1.33,2.74c-2.52,3.61-6.13,4.83-10.35,4.39a10.87,10.87,0,0,1-6.89-3.55c-1.18-1.24-2.4-2.45-3.64-3.63a9.87,9.87,0,0,1-3.05-7.07c-.09-2.35-.06-4.71,0-7.06,0-.85-.19-1.25-1.13-1.2-1.14.07-2.3,0-3.61,0v1.44c0,3.39,0,6.78,0,10.17.08,4.55-1.46,8.16-5.84,10.06a11.26,11.26,0,0,1-12.71-2.5L136.16,69c-.47,1-.82,1.82-1.26,2.61a8.42,8.42,0,0,1-7.07,4.51c-3.46.25-6.94.3-10.42.24a37.94,37.94,0,0,1-5.13-.8C99,72.28,90.76,63.26,84.73,51.47a3.63,3.63,0,0,1-.93.58,20.58,20.58,0,0,1-4.61,1.09c-4.23.16-8.47.06-12.71.06a9.39,9.39,0,0,1-7.09-2.93c-1.54-1.61-3.2-3.12-4.63-4.82A9.56,9.56,0,0,1,55.09,33a8.64,8.64,0,0,1,6.58-2.69c4.15-.07,8.31-.05,12.46,0a9.2,9.2,0,0,1,7.15,3.08c.58.66,1.14,1.34,1.71,2l.33-.19c.28-1.26.54-2.52.84-3.77,2.35-10.11,8.42-17.2,17.78-21.5a34.11,34.11,0,0,1,13.74-2.82c2.2,0,4.4,0,6.59.08a10.57,10.57,0,0,1,7.1,3.34l4.13,4.21c.31-1,.54-1.72.78-2.47,3.39-6.32,12.1-7,17-2.45,1.69,1.58,3.31,3.24,4.92,4.9a8.53,8.53,0,0,1,2.36,4.75,28.44,28.44,0,0,1,.26,3.57c0,2.1,0,4.2,0,6.37h4.71V28c0-3.71-.13-7.43.07-11.13A12.81,12.81,0,0,1,165,11.6c2.66-4.84,9.85-6.35,14.74-3.13a54.84,54.84,0,0,1,4.76,4.17c3.45,2.88,4.73,6.53,4.63,11-.19,8.61-.05,17.23-.06,25.85v1.24a2,2,0,0,0,.71-.88q6.57-14.37,13.14-28.74c1.46-3.19,2.76-6.47,4.5-9.51,3.13-5.47,11.05-6.58,15.77-2.36a36.48,36.48,0,0,1,4,4,21.87,21.87,0,0,1,3.36,5C235,28.58,239.24,39,243.58,49.38c.83,2,1.68,4,2.52,6a2.27,2.27,0,0,0,.26-1.17c0-4.71,0-9.42,0-14.13,0-7.66-.06-15.32,0-23,.07-6.29,3.25-9.77,9.51-10,6.67-.23,13.35-.12,20,0a21.37,21.37,0,0,1,12.94,4.07A90.28,90.28,0,0,1,296,17.85c.79.75,1.47,1.62,2.44,2.71,0-1.31,0-2.29,0-3.27.1-3.09.82-5.94,3.36-8a11.2,11.2,0,0,1,14.87.69c1.28,1.25,2.52,2.54,3.84,3.87.16-.32.25-.49.33-.67,1.62-3.62,4.35-5.78,8.35-6C332,7,334.74,7,337.5,7ZM285,44.14a39.38,39.38,0,0,0,4.43-3.26c5.76-5.62,6.87-12.45,4.4-19.82s-8.09-11-15.4-11.61c-7.67-.59-15.41-.36-23.12-.28-3.8.05-6,2.2-6.68,5.95a15.23,15.23,0,0,0-.19,2.86q0,21.32,0,42.62c0,.67,0,1.35.07,2,.26,3.17,1.94,5.47,4.69,6.3a12.11,12.11,0,0,0,7.08,0,5.86,5.86,0,0,0,4.26-4.15,17.82,17.82,0,0,0,.61-4.6c.05-11.21,0-22.42,0-33.63V25.17c3.68,0,7.24-.12,10.78,0,2.26.11,3.35,1.48,3.47,3.68.15,2.73-1,4.62-3.16,5.09a26.43,26.43,0,0,1-3.57.26c-2.25.17-4,1.11-4.83,3.31a10.53,10.53,0,0,0,.35,9q1.55,2.9,3.11,5.79c2.42,4.49,4.79,9,7.27,13.46a7.88,7.88,0,0,0,8.59,3.81,8.63,8.63,0,0,0,7.2-7.06,9.84,9.84,0,0,0-1.87-6.64C290,52,287.46,48,285,44.14ZM165.56,47.22v1.44c0,4.23,0,8.46,0,12.69s1.76,6.78,5.27,7.95a9.31,9.31,0,0,0,7-.38A6.91,6.91,0,0,0,182,63.85a16,16,0,0,0,.26-3.09q0-17.3,0-34.59c0-3.07,0-6.15,0-9.22A7.36,7.36,0,0,0,179,10.39a8.86,8.86,0,0,0-9.21-.59c-3.09,1.51-4.21,4.2-4.21,7.47q0,6.4,0,12.81v1.31H152.05V30.05c0-4.31,0-8.62,0-12.93,0-2.68-.8-5.05-3.14-6.63a8.84,8.84,0,0,0-9.3-.71c-3.14,1.51-4.27,4.23-4.26,7.56q0,12.43,0,24.89c0,6.35,0,12.69,0,19,0,2.51.49,4.87,2.6,6.54A8.91,8.91,0,0,0,147.53,69c3.32-1.41,4.52-4.19,4.52-7.62V47.22ZM216.12,8.88c-3.63-.3-6.08,1.52-7.57,4.77-6.85,15-13.73,30-20.51,45a7.19,7.19,0,0,0,1,7.78,8.47,8.47,0,0,0,14.53-1.63c.94-2,1.7-4.12,2.51-6.2a1.13,1.13,0,0,1,1.23-.83c5.36,0,10.72,0,16.07,0a1,1,0,0,1,1.2.83c.65,1.92,1.38,3.82,2.08,5.72,1.55,4.18,4.34,5.89,8.72,5.37,5.63-.67,9.13-6.09,7.07-11q-9.31-22.44-18.71-44.86C222.35,10.47,219.94,8.64,216.12,8.88ZM117.41,69.43c1.52,0,3,0,4.55,0a7.4,7.4,0,0,0,5-1.9,9.31,9.31,0,0,0,2-9.86,7.94,7.94,0,0,0-7.76-4.95c-2.4,0-4.8,0-7.2,0a12.57,12.57,0,0,1-9.41-4.33C100.89,44,100.3,39,102.44,33.79c2.07-5,6.23-7.3,11.49-7.65,2.54-.17,5.11,0,7.67-.06a8.19,8.19,0,0,0,8.18-8.51,8.2,8.2,0,0,0-8.22-8.47c-2.24,0-4.48,0-6.71,0-9.31.32-17.24,3.71-23.11,11s-7.7,16.12-6,25.37c1.86,10.39,7.6,17.9,17.58,21.89A34.62,34.62,0,0,0,117.41,69.43ZM393.41,26c-2.54-4.42-4.94-8.64-7.38-12.84a8.19,8.19,0,0,0-11.64-3.09c-3.16,1.92-5.9,6.6-2.67,11.6,4.41,6.82,8.61,13.79,12.86,20.71a4.06,4.06,0,0,1,.57,2c.05,5.74.09,11.49,0,17.23-.07,6.25,5.34,9,10.39,7.91a7.37,7.37,0,0,0,6.23-7.67c.06-5.82,0-11.64,0-17.47a4.2,4.2,0,0,1,.56-2c2.19-3.66,4.45-7.28,6.68-10.91,2.13-3.46,4.32-6.89,6.36-10.41a7.3,7.3,0,0,0-.52-8.82,8.32,8.32,0,0,0-8.83-3.19,8,8,0,0,0-5.29,4.15C398.39,17.46,396,21.65,393.41,26Zm-57.15-.15v1.48q0,11.91,0,23.82c0,3.71,0,7.42,0,11.13A7.15,7.15,0,0,0,342,69.41a12.39,12.39,0,0,0,4,.24,7.47,7.47,0,0,0,6.75-6.29,19.5,19.5,0,0,0,.14-2.86V25.87c2.22,0,4.25.05,6.29,0a8,8,0,0,0,7.81-8.3c0-4.69-3.2-8.38-7.69-8.42-9.87-.09-19.74-.06-29.61,0a6.94,6.94,0,0,0-5.72,2.8,8.79,8.79,0,0,0-1,9.47c1.43,3.17,4.09,4.54,7.54,4.49C332.36,25.87,334.23,25.89,336.26,25.89ZM317.2,39.37c0-3.31,0-6.62,0-9.93,0-4.43,0-8.86-.06-13.29a6.76,6.76,0,0,0-2-4.75,9.07,9.07,0,0,0-9.76-1.91c-3.23,1.31-4.85,3.82-4.86,7.64,0,14.76.05,29.52,0,44.29,0,6.81,5.75,9.22,10.54,8.1,4.11-1,6.11-3.7,6.12-8.36C317.22,53.9,317.2,46.63,317.2,39.37ZM133.27,30.44a2.84,2.84,0,0,0-.5.22,11.28,11.28,0,0,1-7.42,2.22c-2.24,0-4.48,0-6.71.12-7,.45-11.56,6.15-10.35,13.12.59,3.38.74,3.88,4.83,4.39a40.2,40.2,0,0,0,6.94.18,12,12,0,0,1,10.12,4.22c.91,1,1.86,2,2.8,3.05l.29-.24ZM67.88,32.32c-2.12,0-4.23,0-6.35,0A6.71,6.71,0,0,0,54.67,39c-.16,4.14,2.3,7.17,6.34,7.33,4.63.19,9.28.18,13.91,0a6.59,6.59,0,0,0,6.36-7.12,6.78,6.78,0,0,0-6.92-6.89C72.2,32.3,70,32.33,67.88,32.32ZM292.74,49.74c1.77,2.77,3.59,5.6,5.4,8.42l.21-.09V44.47Z" />
    <path class="cls-3"
        d="M340.63,100.54a5.15,5.15,0,0,1-5.35-5.47A5.4,5.4,0,0,1,341,89.59a5.11,5.11,0,0,1,5.37,5.31A5.53,5.53,0,0,1,340.63,100.54Zm4.06-5.73a3.57,3.57,0,0,0-3.77-3.75,3.93,3.93,0,0,0-4,4.16,3.72,3.72,0,0,0,3.72,3.86A4,4,0,0,0,344.69,94.81Z" />
    <path class="cls-3"
        d="M287.14,100.54a5.15,5.15,0,0,1-5.35-5.46,5.39,5.39,0,0,1,5.67-5.49,5.12,5.12,0,0,1,5.39,5.31A5.53,5.53,0,0,1,287.14,100.54Zm-3.7-5.43a3.72,3.72,0,0,0,3.73,4,4,4,0,0,0,4-4.15,3.56,3.56,0,0,0-3.66-3.85A3.92,3.92,0,0,0,283.44,95.11Z" />
    <path class="cls-3"
        d="M350.9,91.48l4.5,5.86c.34-2.7.65-5.08,1-7.5h1.56c-.45,3.68-.88,7.29-1.36,11.2L351.67,95l-1.24-1.71-.29,0c-.3,2.29-.59,4.57-.9,6.93h-1.57c.44-3.59.88-7.16,1.34-10.94Z" />
    <path class="cls-3"
        d="M319.84,95.23c-1.35,0-2.54,0-3.71,0-.25,0-.6.57-.66.91-.23,1.33-.35,2.68-.52,4.08h-1.59c.43-3.5.85-6.93,1.28-10.41h1.55c-.09.68-.16,1.33-.25,2-.22,1.53.22,2,1.76,2.06H320c.09-.91.22-1.76.27-2.6.08-1.4.31-1.61,1.86-1.35-.42,3.41-.84,6.83-1.27,10.31H319.3C319.48,98.6,319.65,97,319.84,95.23Z" />
    <path class="cls-3"
        d="M295.22,89.81c.93,0,1.72,0,2.52,0a2.76,2.76,0,0,1,3,2.24A3,3,0,0,1,299,95.62l-.79.37,2.48,4.2c-1,.29-1.69.23-2.14-.76a23.7,23.7,0,0,0-1.48-2.59c-.19-.31-.43-.59-.65-.88l-.32.08-.58,4.22h-1.56C294.37,96.76,294.79,93.31,295.22,89.81Zm1,4.67c1.94.29,2.93-.35,2.88-1.75,0-1.1-.76-1.36-1.67-1.44s-.93.62-1,1.25S296.33,93.79,296.26,94.48Z" />
    <path class="cls-3"
        d="M324.72,89.85h5.4c-.05.48-.09.9-.14,1.47h-2.3c-1.6,0-1.65,0-1.74,1.66,0,.27,0,.53,0,1h3.5c.33,1.09,0,1.47-1,1.48-3.09,0-3.09,0-3.15,3.13a1.33,1.33,0,0,0,.11.34H329l-.17,1.39h-5.42C323.87,96.76,324.29,93.34,324.72,89.85Z" />
    <path class="cls-3"
        d="M275.74,89.84H281l-.12,1.48a19.37,19.37,0,0,1-2.16,0c-1.2-.15-1.71.35-1.66,1.51,0,.32,0,.63,0,1.09h3.3v1.37h-3.57c-.25,1.71-.48,3.31-.71,4.89-1.58.33-1.59.29-1.39-1.31C275,95.88,275.38,92.91,275.74,89.84Z" />
    <path class="cls-3"
        d="M309.58,100.26H308c.35-3,.7-5.89,1.05-8.89l-2.45-.15c.07-.49.12-.87.18-1.34h6.3c.18,1.35.15,1.45-1.09,1.39-1,0-1.38.23-1.48,1.28C310.31,95.08,309.92,97.6,309.58,100.26Z" />
    <path class="cls-2"
        d="M45.68,33.24c1.09,1,2.31,2.09,3.44,3.26,4,4.15,4.33,10.13.75,14.19a25.58,25.58,0,0,1-2,1.86c1.72,1.75,3.49,3.51,5.22,5.3a10.76,10.76,0,0,1,3.16,9.63c-1,5.79-4.68,8.79-10.7,8.84-4.4,0-8.79,0-13.19,0-5.23,0-10.47.17-15.7,0A9.67,9.67,0,0,1,10,73.65q-2.4-2.34-4.75-4.73a10,10,0,0,1-2.66-7c-.1-3.71,0-7.42,0-11.13q0-16.57,0-33.15A12.14,12.14,0,0,1,4,11.31c1.88-3.23,5-4.23,8.47-4.27C22.14,6.94,31.77,7,41.4,7a10.37,10.37,0,0,1,7.89,3.45C51,12.3,52.84,14,54.34,15.9,58,20.61,56.75,28,51.79,31.09,50.06,32.16,47.87,32.5,45.68,33.24ZM21.26,46.92h1.35c5.08,0,10.16,0,15.24,0a7,7,0,0,0,6.53-3.48,7.88,7.88,0,0,0,.12-8.1,7,7,0,0,0-6.65-3.7H21.28V25.89h1.39q9.48,0,18.95,0a7.44,7.44,0,0,0,5.35-2,9.14,9.14,0,0,0,2-9.75c-1.31-3.26-3.93-5-7.72-5-3.56,0-7.11,0-10.67,0-6.08,0-12.16,0-18.23,0-4.13,0-6.71,2.05-7.43,5.74A16.85,16.85,0,0,0,4.62,18q0,21.3,0,42.62a19.24,19.24,0,0,0,.13,2.15c.49,4.23,2.91,6.63,7.19,6.67,10,.1,20,.07,30,0a7,7,0,0,0,6.21-3.47,8.83,8.83,0,0,0,.37-9.11c-1.52-3-4.18-4.12-7.42-4.12H21.26Z" />
    <path class="cls-3"
        d="M385.2,93c-.34,2.62-.64,4.93-.94,7.26h-1.57c.45-3.63.88-7.17,1.36-11l6.38,8.07c.34-2.65.64-5,.95-7.45h1.56c-.45,3.67-.89,7.28-1.36,11.22Z" />
    <path class="cls-3"
        d="M401,93c-.34,2.63-.64,4.93-.94,7.27h-1.57c.45-3.63.88-7.17,1.36-11,2.19,2.77,4.21,5.32,6.38,8.08.34-2.66.64-5,.95-7.46h1.56c-.45,3.67-.89,7.28-1.36,11.22Z" />
    <path class="cls-3"
        d="M426.19,89.71c1.39.11,2.75.12,4.07.35a3.74,3.74,0,0,1,1.85,1c1.72,1.65,1.85,3.71,1.18,5.86a4.51,4.51,0,0,1-4.28,3.42c-1.31.07-2.62,0-4.11,0C425.33,96.79,425.74,93.38,426.19,89.71Zm.47,9.21c.93,0,1.64,0,2.35-.12a3.12,3.12,0,0,0,2.81-2.53c.43-1.53.48-3.15-.83-4.18-.74-.58-2-.56-3-.75-.12,0-.43.35-.46.57C427.22,94.18,427,96.46,426.66,98.92Z" />
    <path class="cls-3"
        d="M420,94h3.64l-.09,1.42c-1,0-2,0-2.92,0-.69,0-1,.24-1.08.94s-.16,1.64-.26,2.58h3.79c-.06.54-.11,1-.17,1.4h-5.43c.41-3.48.83-6.92,1.25-10.41h5.42c0,.43-.06.84-.1,1.43h-2.29c-1.64,0-1.65,0-1.76,1.62C420,93.21,420,93.48,420,94Z" />
    <path class="cls-3"
        d="M364.36,100.28h-5.42c.43-3.5.85-6.92,1.27-10.41h5.39l-.11,1.44H363.2c-1.63,0-1.65,0-1.76,1.65,0,.27,0,.54,0,1H365v1.48a29.31,29.31,0,0,0-3,0,1.33,1.33,0,0,0-1,.73,19.12,19.12,0,0,0-.34,2.75h3.83C364.48,99.44,364.42,99.83,364.36,100.28Z" />
    <path class="cls-3"
        d="M412.42,93.94h3.66v1.37h-2.92c-.71,0-1.1.23-1.09,1a23.61,23.61,0,0,1-.28,2.52h3.86c-.12.57-.2,1-.29,1.46-1.56,0-3.08,0-4.59,0-.77,0-.77-.39-.69-1,.42-3.12.79-6.24,1.19-9.45h5.29v1.3a24.4,24.4,0,0,1-2.74.27c-.89,0-1.38.18-1.28,1.18A7.55,7.55,0,0,1,412.42,93.94Z" />
    <path class="cls-3"
        d="M373.18,91.19l-.94.83c-1.49-1.1-2.56-1.16-3.15-.22s-.1,1.55,1.36,2.61a6.4,6.4,0,0,1,2.05,2.19,2.77,2.77,0,0,1-1.06,3.37,3.77,3.77,0,0,1-4.17-.06,12.91,12.91,0,0,1-1.35-1.45l.94-.64A7.61,7.61,0,0,0,369.17,99a2.31,2.31,0,0,0,1.72-.89c.5-.69.13-1.46-.56-2-.52-.37-1.07-.68-1.6-1.05a2.89,2.89,0,0,1-.84-4.33,3.21,3.21,0,0,1,4.76-.21A7.09,7.09,0,0,1,373.18,91.19Z" />
    <path class="cls-3"
        d="M379.89,89.85h1.58c-.42,3.49-.84,6.9-1.26,10.4h-1.59C379,96.78,379.46,93.33,379.89,89.85Z" />
    <path class="cls-3"
        d="M285,44.14c2.46,3.85,5,7.81,7.51,11.79a9.84,9.84,0,0,1,1.87,6.64,8.63,8.63,0,0,1-7.2,7.06,7.88,7.88,0,0,1-8.59-3.81c-2.48-4.46-4.85-9-7.27-13.46q-1.56-2.89-3.11-5.79a10.53,10.53,0,0,1-.35-9c.82-2.2,2.58-3.14,4.83-3.31a26.43,26.43,0,0,0,3.57-.26c2.2-.47,3.31-2.36,3.16-5.09-.12-2.2-1.21-3.57-3.47-3.68-3.54-.16-7.1,0-10.78,0v1.42c0,11.21,0,22.42,0,33.63a17.82,17.82,0,0,1-.61,4.6A5.86,5.86,0,0,1,260.28,69a12.11,12.11,0,0,1-7.08,0c-2.75-.83-4.43-3.13-4.69-6.3,0-.68-.07-1.36-.07-2q0-21.32,0-42.62a15.23,15.23,0,0,1,.19-2.86c.69-3.75,2.88-5.9,6.68-5.95,7.71-.08,15.45-.31,23.12.28,7.31.57,13,4.36,15.4,11.61s1.36,14.2-4.4,19.82A39.38,39.38,0,0,1,285,44.14Z" />
    <path class="cls-3"
        d="M165.56,47.22H152.05V61.33c0,3.43-1.2,6.21-4.52,7.62A8.91,8.91,0,0,1,138,67.8c-2.11-1.67-2.6-4-2.6-6.54,0-6.34,0-12.68,0-19q0-12.45,0-24.89c0-3.33,1.12-6.05,4.26-7.56a8.84,8.84,0,0,1,9.3.71c2.34,1.58,3.13,3.95,3.14,6.63,0,4.31,0,8.62,0,12.93v1.34h13.51V30.08q0-6.41,0-12.81c0-3.27,1.12-6,4.21-7.47a8.86,8.86,0,0,1,9.21.59A7.36,7.36,0,0,1,182.26,17c0,3.07,0,6.15,0,9.22q0,17.3,0,34.59a16,16,0,0,1-.26,3.09,6.91,6.91,0,0,1-4.15,5.07,9.31,9.31,0,0,1-7,.38c-3.51-1.17-5.23-3.77-5.27-7.95s0-8.46,0-12.69Z" />
    <path class="cls-1"
        d="M216.12,8.88c3.82-.24,6.23,1.59,7.62,4.91q9.38,22.42,18.71,44.86c2.06,5-1.44,10.37-7.07,11-4.38.52-7.17-1.19-8.72-5.37-.7-1.9-1.43-3.8-2.08-5.72a1,1,0,0,0-1.2-.83c-5.35,0-10.71,0-16.07,0a1.13,1.13,0,0,0-1.23.83c-.81,2.08-1.57,4.18-2.51,6.2A8.47,8.47,0,0,1,189,66.42a7.19,7.19,0,0,1-1-7.78c6.78-15,13.66-30,20.51-45C210,10.4,212.49,8.58,216.12,8.88ZM216,33.8,211.7,44.61h8C218.49,41,217.3,37.54,216,33.8Z" />
    <path class="cls-3"
        d="M117.41,69.43a34.62,34.62,0,0,1-14.13-2c-10-4-15.72-11.5-17.58-21.89-1.66-9.25.08-17.93,6-25.37s13.8-10.72,23.11-11c2.23-.07,4.47,0,6.71,0a8.2,8.2,0,0,1,8.22,8.47,8.19,8.19,0,0,1-8.18,8.51c-2.56.05-5.13-.11-7.67.06-5.26.35-9.42,2.64-11.49,7.65C100.3,39,100.89,44,104.62,48.34A12.57,12.57,0,0,0,114,52.67c2.4.09,4.8,0,7.2,0A7.94,7.94,0,0,1,129,57.66a9.31,9.31,0,0,1-2,9.86,7.4,7.4,0,0,1-5,1.9C120.45,69.48,118.93,69.43,117.41,69.43Z" />
    <path class="cls-1"
        d="M393.41,26c2.54-4.39,5-8.58,7.39-12.79a8,8,0,0,1,5.29-4.15,8.32,8.32,0,0,1,8.83,3.19,7.3,7.3,0,0,1,.52,8.82c-2,3.52-4.23,7-6.36,10.41-2.23,3.63-4.49,7.25-6.68,10.91a4.2,4.2,0,0,0-.56,2c0,5.83,0,11.65,0,17.47a7.37,7.37,0,0,1-6.23,7.67c-5.05,1.07-10.46-1.66-10.39-7.91.07-5.74,0-11.49,0-17.23a4.06,4.06,0,0,0-.57-2c-4.25-6.92-8.45-13.89-12.86-20.71-3.23-5-.49-9.68,2.67-11.6A8.19,8.19,0,0,1,386,13.2C388.47,17.4,390.87,21.62,393.41,26Z" />
    <path class="cls-1"
        d="M336.26,25.89c-2,0-3.9,0-5.77,0-3.45.05-6.11-1.32-7.54-4.49a8.79,8.79,0,0,1,1-9.47,6.94,6.94,0,0,1,5.72-2.8c9.87-.05,19.74-.08,29.61,0,4.49,0,7.71,3.73,7.69,8.42a8,8,0,0,1-7.81,8.3c-2,.06-4.07,0-6.29,0V60.5a19.5,19.5,0,0,1-.14,2.86A7.47,7.47,0,0,1,346,69.65a12.39,12.39,0,0,1-4-.24,7.15,7.15,0,0,1-5.68-7.09c-.08-3.71,0-7.42,0-11.13q0-11.91,0-23.82Z" />
    <path class="cls-1"
        d="M317.2,39.37c0,7.26,0,14.53,0,21.79,0,4.66-2,7.41-6.12,8.36-4.79,1.12-10.58-1.29-10.54-8.1.07-14.77,0-29.53,0-44.29,0-3.82,1.63-6.33,4.86-7.64a9.07,9.07,0,0,1,9.76,1.91,6.76,6.76,0,0,1,2,4.75c.05,4.43.05,8.86.06,13.29C317.21,32.75,317.2,36.06,317.2,39.37Z" />
    <path class="cls-3"
        d="M67.88,32.33c2.16,0,4.32,0,6.48,0a6.78,6.78,0,0,1,6.92,6.89,6.59,6.59,0,0,1-6.36,7.12c-4.63.18-9.28.19-13.91,0-4-.16-6.5-3.19-6.34-7.33a6.71,6.71,0,0,1,6.86-6.68C63.65,32.3,65.76,32.32,67.88,32.33Z" />
    <path class="cls-3"
        d="M21.26,46.92v5.79H41.08c3.24,0,5.9,1.12,7.42,4.12a8.83,8.83,0,0,1-.37,9.11,7,7,0,0,1-6.21,3.47c-10,.06-20,.09-30,0-4.28,0-6.7-2.44-7.19-6.67a19.24,19.24,0,0,1-.13-2.15q0-21.31,0-42.62a16.85,16.85,0,0,1,.25-3.1c.72-3.69,3.3-5.71,7.43-5.74,6.07,0,12.15,0,18.23,0,3.56,0,7.11,0,10.67,0,3.79,0,6.41,1.72,7.72,5a9.14,9.14,0,0,1-2,9.75,7.44,7.44,0,0,1-5.35,2q-9.48,0-18.95,0H21.28v5.74H37.85a7,7,0,0,1,6.65,3.7,7.88,7.88,0,0,1-.12,8.1,7,7,0,0,1-6.53,3.48c-5.08,0-10.16,0-15.24,0Z" />
    <path class="cls-4" d="M216,33.8c1.26,3.74,2.45,7.22,3.66,10.81h-8Z" />
</svg>