<svg id="logo_Image" data-name="logo Image" xmlns="http://www.w3.org/2000/svg"
    viewBox="0 0 250.8 152.4">
    <defs>
        <style>.cls-1{fill:#010101;}.cls-2{fill:#070707;}</style>
    </defs>
    <title>Artboard 1</title>
    <path class="cls-1"
        d="M6.72,45.53l-.1-15.84.6-2.61a7.67,7.67,0,0,1,1,0c1.59.19,2-.06,2.33-1.66a37.27,37.27,0,0,0,.77-9.6c0-.71-.32-1-1-1S9,15,8.38,15.09l.11-3.4.6-2.11c2.36,0,2.33,0,2.82-1.5a6.58,6.58,0,0,1,.81-1.33,5,5,0,0,1,1,1.13c.63,1.4,1.55,2.2,3.17,1.89,1,1.75.74,3.68.84,5.56h-.6c-1.9,0-2.14.15-2,2a39.52,39.52,0,0,0,.68,4.58c.43,2.4.86,2.75,3.15,2.75l.67,6h-.48c-1.65,0-2.15.48-2.13,2,0,1.11.61,1.55,2.15,1.55h.59c.08.26.17.52.24.79.46,1.77.19,2.34-1.42,3.18a10.93,10.93,0,0,0-1.26.88c-1.87,1.36-2.21,3.36-2.31,5.46h-1c-1.51,0-2,.35-1.79,1.8a16.79,16.79,0,0,0,1,3.63,17.62,17.62,0,0,0,3.44,5.07c1.62,2,3.08,4,4.55,6.11,1.86,2.61,3.66,5.27,5.5,7.9a19.27,19.27,0,0,0,2.37,3.24A66.07,66.07,0,0,0,35,77.09a7.85,7.85,0,0,0,2.31.77l2.14.68c.6.18,1,0,1.13-.65,1.67,0,2.38-.64,2.4-2.06,0-1.86-.51-2.43-2.31-2.5-.78-1-1.55-1.93-2.32-2.91C36.39,68,34,65.92,32.52,63.08a33.06,33.06,0,0,0-3-4.19c-.84-1.14-1.66-2.29-2.49-3.44l-2-2.74-.47,0-1.07,4.11c-1.89-2.48-3.94-4.85-5.61-7.47A5.23,5.23,0,0,1,19,42.68a24.5,24.5,0,0,1,3-2c.69-.44,1.26-1,.94-1.86-1-2.51-.85-5.15-1.12-7.75-.27-2.76-.8-5.5-1.11-8.26C20.29,19.17,20,15.58,19.62,12l.42-.12,2.68,5.4c.66,1.47,1.27,3,2,4.39a11.6,11.6,0,0,1,1.58,5.53c-.07,3.84.82,7.54,1.56,11.27.25,1.28.28,2.6.41,3.91-.15,0-.34.12-.44.06a8.65,8.65,0,0,0-5.77-.74c-2.23.32-3.22,2.06-2.1,3.94.17.3.35.59.54.91.77-1.15,2-.86,3-1,2.37-.37,4.27,1,6.25,1.95a9.09,9.09,0,0,0,1.63,1.43c2.75,1.43,4.93,3.57,7.22,5.58,4.68,4.09,7.73,9.55,12,14A29.75,29.75,0,0,0,58.69,75c.21.11.53,0,.8,0,1.74,1.21,3.78,1.13,5.73,1.13a21.08,21.08,0,0,1,6.55,1.1,20.57,20.57,0,0,0,3.6.65c2.19.3,4.47.16,6.53,1.21a4.8,4.8,0,0,0,1.63.68c2.38.21,4.32,1.51,6.39,2.46.42,1.08,1.32,1.12,2.27,1.09l0,0a3.48,3.48,0,0,0,.55,1c1.48,1.33,3.1,2.5,4.48,3.93,2.82,2.91,5.64,5.84,8.21,9a39.23,39.23,0,0,1,4.45,6.85,77,77,0,0,1,3.38,8.11,16,16,0,0,1,1.06,4.1c.2,2.43.52,2.86,3,2.83l.6,6.24c-.22.16-.61.29-.64.48-.14.88-.18,1.78-.26,2.68-.05,5.31-.11,10.62-.14,15.93,0,1.32-.15,1.53-1.48,1.53l-7.27,0-28,0c-1,0-1.35-.47-1.32-1.39,0-1.18.09-2.37.08-3.55,0-2.3-.07-4.6-.09-6.9a21.14,21.14,0,0,0,0-4.36,18.76,18.76,0,0,0-3.7-7.36c-2.7-3.41-6.24-5.83-9.88-8.1-2.42-1.5-4.94-2.85-7.42-4.27-2.78-1.6-5.6-3.14-8.31-4.84-3.21-2-6.31-4.18-9.47-6.25-.91-.59-1.93-1-2.83-1.64-2.15-1.44-4.36-2.84-6.37-4.47a28.15,28.15,0,0,1-3.9-4,14.85,14.85,0,0,1-1.4-2.58c-1.37-2.57-2.8-5.11-4.13-7.7-1.46-2.87-2.85-5.78-4.26-8.68q-1.2-2.43-2.37-4.86c-.05-.1,0-.24-.07-.35-.57-1.61-1.11-3.24-1.74-4.84a7.78,7.78,0,0,0-1.29-2.37,4,4,0,0,1-1.06-2.5A7.38,7.38,0,0,0,9.4,51.1a19,19,0,0,1-1-2.53C7.91,47.53,7.29,46.54,6.72,45.53Z" />
    <path class="cls-1"
        d="M242.39,32.74l0,1.57v.63l.06,8.13s-.07,0-.07.07a1.2,1.2,0,0,0,0,.2l-.2.92a19.39,19.39,0,0,1-.55,1.88c-.68,1.68-1.45,3.32-2.1,5s-1.2,3.57-1.91,5.31c-1,2.41-2.06,4.78-3.1,7.17-.86,2-1.67,4-2.59,5.93-1.37,2.87-2.81,5.7-4.22,8.54-.31.64-.59,1.28-.91,1.91-.87,1.68-1.69,3.39-2.64,5-1.26,2.19-2.16,4.64-4.31,6.22-1.45,1.07-2.86,2.23-4.35,3.25-4.27,2.9-8.57,5.75-12.86,8.62-.47.3-1,.54-1.45.83l-9.3,5.66c-.3.18-.63.31-.94.5-2.06,1.24-4.13,2.46-6.17,3.73-1.64,1-3.24,2.1-4.85,3.15a6.88,6.88,0,0,1-1.18.81c-2.21.89-3.37,2.93-4.75,4.6s-2.9,3.15-3,5.45a1,1,0,0,1-.06.23,15.08,15.08,0,0,0-.87,3.32q-.17,6.34,0,12.69c0,1.29-.48,1.71-1.57,1.82-.44,0-.88.05-1.32.05H157.2q-11.88,0-23.74,0c-1.18,0-1.57-.61-1.57-1.62s.14-2.07.14-3.1c0-4.41-.11-8.82-.16-13.23l-.67-.76-.52-3.32.06-.38.18-.84,0-.34c.09-1.09.19-2.18.29-3.27a5.74,5.74,0,0,0,1.63-.27c.54-.26,1.26-.69,1.38-1.18a67.74,67.74,0,0,1,2-7,58.91,58.91,0,0,1,6.93-12.87,46.39,46.39,0,0,1,4.71-5.68c1.74-1.86,3.61-3.6,5.51-5.29,1.41-1.27,3-2.36,4.45-3.56a2.9,2.9,0,0,0,.47-.79c2.27-.94,4.52-2,6.83-2.8s4.58-1.76,7.13-1.66a10.44,10.44,0,0,0,2.93-.38c2.92-.74,5.77-1.64,8.86-1.54a25.92,25.92,0,0,0,5.11-.83c1.7.15,2.83-1,4-1.91a55.66,55.66,0,0,0,10.51-11.16,85.34,85.34,0,0,1,8.14-9,53.61,53.61,0,0,1,5.44-4,17.23,17.23,0,0,0,1.73-1.69c.74-.38,1.45-.82,2.21-1.15a8.39,8.39,0,0,1,7.32,0,3.84,3.84,0,0,0,.71-1.28c.09-.68.18-1.67-.2-2a5.64,5.64,0,0,0-2.71-1.39,8.65,8.65,0,0,0-5.41.83c.31-2.64.62-5.27.92-7.91s.61-5.06.83-7.6a12.26,12.26,0,0,1,1.34-4.77c.9-1.74,1.65-3.57,2.47-5.36l2.7-5.45c-.08,3.23-.32,6.41-.66,9.59-.39,3.63-.85,7.26-1.3,10.88a32.51,32.51,0,0,1-.78,5.06c-.71,2.45-.51,3.14,1.8,4.4,3.57,2,5,5.79,2.14,9.35-1.63,2.06-3.27,4.1-4.92,6.14,0,.06-.21,0-.1,0l-1.07-4.46c-1.3,1.77-2.4,3.27-3.48,4.77-.86,1.18-1.73,2.37-2.55,3.58-2.13,3.11-4.19,6.25-7,8.81a18.9,18.9,0,0,0-2.22,3,10.75,10.75,0,0,1-.78.87,2.38,2.38,0,0,0-2.62,1.21c-.64,2.07.25,3.29,2.41,3.32.43.17.89.53,1.28.47a21.56,21.56,0,0,0,2.66-.75,4.67,4.67,0,0,0,3.34-1.56c1.54-1.37,3.44-2.41,4.71-4,2.12-2.65,3.79-5.65,5.77-8.42q3.28-4.59,6.81-9c1.66-2.09,3.33-4.19,3.94-6.82.56-2.47,1.07-3-2-3.51-.14,0-.26-.15-.39-.24-.19-2.29-1-4.41-3.1-5.42s-2.61-2.15-2-4.15l.06-.23h.6c2.09,0,2.92-1.18,2.2-3.1a1.42,1.42,0,0,0-.85-.7,11.27,11.27,0,0,0-1.74-.28l.51-5.27a3.6,3.6,0,0,1,1.19.06,1.14,1.14,0,0,0,1.68-.81A24.71,24.71,0,0,0,234,15c-.05-.86-.51-1.63-1.7-1.27a2.92,2.92,0,0,1-1.15-.12l.29-2.87a2.38,2.38,0,0,1,.82.09c1.24.67,1.81,0,2.25-1a11.51,11.51,0,0,1,.55-1.3,14.76,14.76,0,0,1,1.1-1.43c.28.78.4,1.23.6,1.64.41.87.89,1.64,2.08,1.13a2.5,2.5,0,0,1,.83-.07l.47,2.69c-.35.22-.75.68-1,.61-1.09-.25-1.54.32-1.66,1.18a5,5,0,0,0,.24,1.85c.16.67.76,1.43.59,2-.71,2.22-.32,4.37.05,6.56.42,2.45.76,2.76,3.2,2.41C241.82,29,242.1,30.85,242.39,32.74Zm-111,91.59h-.1v.37h.1Z" />
    <path class="cls-2"
        d="M240.14,12.49l.26.2c0,.4.07.8.11,1.2l.33,5v.74l.69,7.43c-2.44.35-2.78,0-3.2-2.41-.37-2.19-.76-4.34-.05-6.56.17-.54-.43-1.3-.59-2a5,5,0,0,1-.24-1.85c.12-.86.57-1.43,1.66-1.18C239.39,13.17,239.79,12.71,240.14,12.49Z" />
    <path class="cls-2"
        d="M8.38,15.09c.63-.08,1.25-.17,1.88-.23s1,.26,1,1a37.27,37.27,0,0,1-.77,9.6c-.38,1.6-.74,1.85-2.33,1.66a7.67,7.67,0,0,0-1,0c.2-1,.47-2,.58-3,.13-1.23.12-2.49.18-3.73l0-1.24L8.22,18Z" />
    <path class="cls-2"
        d="M92.21,83.29c2.19.55,3.6,2.25,5.12,3.68,2.45,2.29,4.79,4.7,7.06,7.17a51.34,51.34,0,0,1,5.21,6.31c2.25,3.41,4.57,6.83,5.51,10.93a19.06,19.06,0,0,0,.91,1.88,38.37,38.37,0,0,1,1.15,3.74,12.34,12.34,0,0,1,.17,2.11c-2.48,0-2.8-.4-3-2.83a16,16,0,0,0-1.06-4.1,77,77,0,0,0-3.38-8.11,39.23,39.23,0,0,0-4.45-6.85c-2.57-3.13-5.39-6.06-8.21-9-1.38-1.43-3-2.6-4.48-3.93A3.48,3.48,0,0,1,92.21,83.29Z" />
    <path class="cls-2"
        d="M15,44.57a15,15,0,0,1,0,2.32,6.88,6.88,0,0,0,1.62,5.5c2.27,2.9,4.42,5.9,6.62,8.86l5.34,7.12a3.1,3.1,0,0,1,.51.8c1,3.1,3.37,5,5.89,6.78.8.56,1.5,1.27,2.25,1.91A7.85,7.85,0,0,1,35,77.09a66.07,66.07,0,0,1-5.8-4.76,19.27,19.27,0,0,1-2.37-3.24c-1.84-2.63-3.64-5.29-5.5-7.9-1.47-2.07-2.93-4.16-4.55-6.11A17.62,17.62,0,0,1,13.29,50a16.79,16.79,0,0,1-1-3.63c-.18-1.45.28-1.79,1.79-1.8Z" />
    <path class="cls-2"
        d="M29.73,47.47a9.8,9.8,0,0,1,1.74.67c2,1.18,3.91,2.33,5.76,3.65a30.67,30.67,0,0,1,3.45,3.1,91.38,91.38,0,0,1,8,9.21C51,67,53.52,69.74,56.07,72.44A23.34,23.34,0,0,0,59.49,75c-.27,0-.59.13-.8,0a29.75,29.75,0,0,1-8.16-6.45c-4.22-4.49-7.27-9.95-12-14-2.29-2-4.47-4.15-7.22-5.58A9.09,9.09,0,0,1,29.73,47.47Z" />
    <path class="cls-2"
        d="M17.76,15.33c.22,2.24.41,4.47.67,6.7.1.89.36,1.77.54,2.65-2.29,0-2.72-.35-3.15-2.75a39.52,39.52,0,0,1-.68-4.58c-.12-1.87.12-2,2-2Z" />
    <path class="cls-2"
        d="M9.09,9.58a21.46,21.46,0,0,1,1-4C10.8,4.07,12,4,13.28,4.9a10.19,10.19,0,0,1,3.64,4.87c-1.62.31-2.54-.49-3.17-1.89a5,5,0,0,0-1-1.13,6.58,6.58,0,0,0-.81,1.33C11.42,9.57,11.45,9.58,9.09,9.58Z" />
    <path class="cls-2"
        d="M40.53,77.89c0-1.1,0-1.1-1.8-3.38h1.73l.16-1.18c1.8.07,2.32.64,2.31,2.5C42.91,77.25,42.2,77.86,40.53,77.89Z" />
    <path class="cls-2"
        d="M117.94,125.35c-.06.85-.19,1.7-.18,2.55,0,4.17.13,8.34.15,12.51a15.94,15.94,0,0,1-.37,2.45l-.32,0c0-2,0-3.94,0-5.92,0-2.43,0-4.85,0-7.28a7.1,7.1,0,0,0-.17-1.11c.08-.9.12-1.8.26-2.68C117.33,125.64,117.72,125.51,117.94,125.35Z" />
    <path class="cls-2"
        d="M19.64,30.67c0,1.2.08,2.39.13,3.59h-.59c-1.54,0-2.14-.44-2.15-1.55,0-1.57.48-2,2.13-2Z" />
    <path class="cls-2" d="M89.92,82.18l2.27,1.09C91.24,83.3,90.34,83.26,89.92,82.18Z" />
    <path class="cls-2"
        d="M131.19,119.12a47,47,0,0,1,1.42-5.55,62.4,62.4,0,0,1,3.59-8,83.4,83.4,0,0,1,5.34-8.24,51.85,51.85,0,0,1,5-5.88c1.64-1.68,3.53-3.12,5.3-4.68.5-.44,1-.93,1.46-1.37,1.49-1.28,2.87-2.72,5-3a2.9,2.9,0,0,1-.47.79c-1.47,1.2-3,2.29-4.45,3.56-1.9,1.69-3.77,3.43-5.51,5.29a46.39,46.39,0,0,0-4.71,5.68,58.91,58.91,0,0,0-6.93,12.87,67.74,67.74,0,0,0-2,7c-.12.49-.84.92-1.38,1.18A5.74,5.74,0,0,1,131.19,119.12Z" />
    <path class="cls-2"
        d="M211.89,77.62c1.09-.91,2.15-1.85,3.27-2.72a15.62,15.62,0,0,0,4.7-5.74,29,29,0,0,1,2.6-3.8c.87-1.23,1.71-2.48,2.62-3.68,1.82-2.39,3.71-4.74,5.5-7.15,1.42-1.9,3.1-3.68,3.27-6.22,0-.5-.08-1,0-1.51,0-.91.15-1.82.23-2.73.13.09.25.22.39.24,3.11.48,2.6,1,2,3.51-.61,2.63-2.28,4.73-3.94,6.82q-3.53,4.43-6.81,9c-2,2.77-3.65,5.77-5.77,8.42-1.27,1.57-3.17,2.61-4.71,4A4.67,4.67,0,0,1,211.89,77.62Z" />
    <path class="cls-2"
        d="M189.13,75.23c.75-.63,1.49-1.27,2.26-1.88A42.52,42.52,0,0,0,200.22,64a58.13,58.13,0,0,1,10-10.86,74.2,74.2,0,0,1,6.86-5,7.22,7.22,0,0,1,1.88-.66,17.23,17.23,0,0,1-1.73,1.69,53.61,53.61,0,0,0-5.44,4,85.34,85.34,0,0,0-8.14,9,55.66,55.66,0,0,1-10.51,11.16C192,74.19,190.83,75.38,189.13,75.23Z" />
    <path class="cls-2"
        d="M229.74,24.92l1.41-11.27a2.92,2.92,0,0,0,1.15.12c1.19-.36,1.65.41,1.7,1.27a24.71,24.71,0,0,1-1.39,9.13,1.14,1.14,0,0,1-1.68.81A3.6,3.6,0,0,0,229.74,24.92Z" />
    <path class="cls-2"
        d="M231.44,10.78a11.25,11.25,0,0,1,4.32-6,1.88,1.88,0,0,1,2.94.89c.45,1.32.65,2.73,1,4.1a2.5,2.5,0,0,0-.83.07c-1.19.51-1.67-.26-2.08-1.13-.2-.41-.32-.86-.6-1.64a14.76,14.76,0,0,0-1.1,1.43,11.51,11.51,0,0,0-.55,1.3c-.44,1-1,1.71-2.25,1A2.38,2.38,0,0,0,231.44,10.78Z" />
    <path class="cls-2"
        d="M208.16,73.37c-.34,1,.53,1.11.94,1.46-.39,1-.77,2-1.15,3.07-2.16,0-3-1.25-2.41-3.32A2.38,2.38,0,0,1,208.16,73.37Z" />
    <path class="cls-2"
        d="M229,34.27l.21-4.08a11.27,11.27,0,0,1,1.74.28,1.42,1.42,0,0,1,.85.7c.72,1.92-.11,3.07-2.2,3.1Z" />
    <path class="cls-2"
        d="M131.87,128c0,2.21,0,4.42.07,6.64,0,.5,0,1,0,1.5l-.33,6.58h-.4V127.27Z" />
    <path class="cls-2"
        d="M130.92,122.73c-.25-.26-.71-.51-.73-.79a20.48,20.48,0,0,1,.1-3.57,2.52,2.52,0,0,1,.19.63c0,1,0,2,0,3,0,.14.25.27.39.41Z" />
    <path class="cls-2" d="M130.68,124l-.26-.65.2-.07.12.34Z" />
    <path class="cls-2" d="M131.34,124.33v.37h-.1v-.37Z" />
    <path class="cls-2" d="M117.59,112l.67,4.28a5.93,5.93,0,0,1-.66-4.27Z" />
    <path class="cls-2" d="M117.6,112.05l-.11,0h-.06l.16,0Z" />
    <path class="cls-2"
        d="M131.74,111.79c-.31,1.79-.62,3.57-.92,5.36l-.57-.11c.33-1.78.65-3.56,1-5.34Z" />
    <path class="cls-2"
        d="M29.07,63.69l6.51,8-.33.36a16.47,16.47,0,0,1-2.68-2.35c-1.37-1.87-2.52-3.89-3.76-5.84Z" />
    <path class="cls-2" d="M28.81,63.89l-.2-.4.46.2Z" />
    <path class="cls-2" d="M220,64c-2,2.78-2.91,6.4-6.65,7.82l6.32-8.06Z" />
</svg>