<svg id="logo_Image" data-name="logo Image" xmlns="http://www.w3.org/2000/svg"
    viewBox="0 0 480 360">
    <defs>
        <style>
            .cls-1{fill:#010101;}.cls-2{fill:#c7bda6;}.cls-3{fill:#c7bca5;}.cls-4{fill:#0c0c0c;}.cls-5{fill:#101010;}.cls-6{fill:#1c1c1c;}.cls-7{fill:#121212;}.cls-8{fill:#151515;}.cls-9{fill:#3d3d3d;}.cls-10{fill:#b4afa5;}.cls-11{fill:#a59c89;}.cls-12{fill:#1e1e1e;}.cls-13{fill:#292929;}.cls-14{fill:#262626;}
        </style>
    </defs>
    <title>Artboard 1</title>
    <path class="cls-1"
        d="M358,93.41q0,5.31,0,10.61l-.05.32-.21.93a19.22,19.22,0,0,1-.6,2c-.62,1.54-1.34,3-2,4.58-1.15,2.89-2.24,5.8-3.38,8.7-.54,1.36-1.11,2.7-1.69,4-.85,2-1.67,4-2.59,5.94-1.35,2.84-2.77,5.64-4.16,8.46-.33.67-.64,1.35-1,2q-1.21,2.3-2.48,4.58c-1,1.77-2,3.53-2.94,5.29-2.94,2.29-5.8,4.68-8.83,6.84-2.71,1.94-5.61,3.62-8.43,5.4-.91.57-1.87,1.07-2.78,1.65-1.92,1.22-3.8,2.52-5.75,3.71-1.49.91-3.07,1.67-4.57,2.56-1.79,1.08-3.54,2.23-5.31,3.35l-6,3.77a6.9,6.9,0,0,0-1.1.71c-1.61,1.56-3.21,3.13-4.77,4.73a11,11,0,0,0-1.5,2,14.62,14.62,0,0,0-.83,2,13.76,13.76,0,0,0-1.5,7.39c.1,3.51,0,7,0,10.54,0,.85-.25,1.27-1.09,1.34-.35,0-.71.12-1.06.18-.52,0-1-.06-1.55-.06H257c-2.67,0-5.34,0-8,0-.48-.14-1.23.19-1.26-.72V190.43c-.09.22-.28.46-.27.7,0,1.8.09,3.6.06,5.39,0,2.3-.14,4.6-.23,6.9a1.17,1.17,0,0,1-.19.41c-.62-6.36.39-12.79-.78-19.14.1-.1.27-.2.29-.32.18-1.57.35-3.15.52-4.72,1.21,0,2.36,0,2.65-1.54a14.67,14.67,0,0,1,.6-2.66A76.36,76.36,0,0,1,255.9,163,57.66,57.66,0,0,1,265,151.32c2.56-2.53,5.45-4.73,8.17-7.09a3.47,3.47,0,0,0,.5-.78l1.75-.75c1.41-.58,2.83-1.18,4.26-1.73a21.42,21.42,0,0,1,2.71-.88c1.62-.39,3.24-.73,4.87-1,1.17-.21,2.39-.18,3.54-.46,2.93-.71,5.78-1.64,8.89-1.55a25.3,25.3,0,0,0,5.1-.86,7.16,7.16,0,0,0,1.76-.6,23.39,23.39,0,0,0,3.32-2.52c2.22-2.11,4.47-4.22,6.48-6.52,2.48-2.83,4.63-6,7.12-8.78a39.05,39.05,0,0,1,9.35-7.92,5.15,5.15,0,0,0,1.06-1.2,20.93,20.93,0,0,1,2.28-1c1.38-.46,2.79-.83,4.18-1.23l4.06.71c.17-.59.43-1.47.7-2.35-.39-.46-.77-.93-1.15-1.39a7.32,7.32,0,0,0-1.94-.89,9.22,9.22,0,0,0-5.51.85c.47-3.61,1-7.22,1.4-10.84.23-1.94.3-3.89.53-5.83a8.18,8.18,0,0,1,.66-2.38c1.82-4,3.7-7.95,5.57-11.92.08.1.24.22.23.31-.23,3-.28,6-.79,8.92A73.31,73.31,0,0,0,342.76,93a19.2,19.2,0,0,1-.78,5c-.64,2.19-.38,3.11,1.68,4.15a7,7,0,0,1,3.42,3.51c.77,1.81.26,3.46-.45,5.12h0l-.29.46-.2.24-.22.26v0l-.17.21q-2.31,2.84-4.64,5.66c-.1.12-.31.14-.47.2l-.06-2.49-.82-2.05c-1.09,1.55-2.12,3-3.16,4.46-.25.35-.52.67-.77,1-1.85,2.62-3.74,5.21-5.51,7.89-1.37,2.07-3.82,3.21-4.74,5.69-.28.76-1.12,1.31-1.7,2-1.06.26-2,.65-2.08,1.94s.46,1.9,1.9,2.35c-.14.94.6,1,1.09.83,1.06-.27,2.06-.72,3.09-1.09,1.12-.63,2.27-1.2,3.34-1.89a19.55,19.55,0,0,0,6-5.7c1.37-2.09,2.59-4.29,4-6.32,2.09-2.94,4.29-5.81,6.51-8.65,1.86-2.38,3.8-4.69,4.47-7.76.33-1.47-.26-2.42-1.78-2.52-.27,0-.55,0-.83,0a9.5,9.5,0,0,0,0-1.51,6.57,6.57,0,0,0-4-5.11c-.71-.35-1.26-.71-1.18-1.68.23-2.56.36-5.14.54-7.7.25-1.7.51-3.39.76-5.08,2,0,2.44-.24,2.95-2.05a14.36,14.36,0,0,0,.56-3.5c.08-2.8-.05-2.89-2.47-3.13.21-1.85-.08-3.8,1.06-5.48a2.33,2.33,0,0,0,2.42-.86,12.66,12.66,0,0,1,.72-1.08,12.09,12.09,0,0,1,.86-.9,6.81,6.81,0,0,1,.7,1c.66,1.4,1.12,1.67,2.56,1.36l1,4.07.06.94a2.33,2.33,0,0,0-.09.58c.36,4.1.69,8.21,1.11,12.31C357.36,89.6,357.74,91.5,358,93.41Z" />
    <path class="cls-1"
        d="M122.34,105.29v-.94l-.17-.74q.07-6.23.16-12.46l.69-3.5,0-.34c1.14.27,2.34.41,2.76-1,.66-2.28,1.26-4.61.38-7a1.52,1.52,0,0,0-1-.87c-.83-.08-1-.49-1-1.19A12.55,12.55,0,0,0,124,75.8l.11-3.15.6-2.38c1.55.23,2.35-.55,2.79-2,.11-.35.53-.61.81-.91a4.87,4.87,0,0,1,.76.82c.71,1.23,1.37,2.5,3.17,2l.87,2c.08,1.44.15,2.88.22,4.32-1.86,0-2.78.71-2.59,2.08a32.85,32.85,0,0,0,.72,4.08c.51,1.94.92,2.4,2.87,2.23.23,1.25.55,2.49.67,3.75.27,2.65.46,5.31.62,8,0,.81.36,1.73-.82,2.22-3,1.28-4.35,3.66-4.19,6.91-2.44.09-2.79.55-2.32,3a2.44,2.44,0,0,0,.21.92c1.51,2.26,3,4.54,4.61,6.73,1.79,2.43,3.78,4.71,5.51,7.17s3.05,4.84,4.58,7.26a21,21,0,0,0,6.47,6.08c.83.55,1.75,1,2.63,1.44s1.84.81,2.79,1.17c.6.23,1,0,1.05-.68,1.86-.05,2.32-.57,2.5-2.87.06-.78-.81-1.49-2.05-1.68l-.4,0c-.76-.85-1.52-1.69-2.25-2.56-.09-.1,0-.35,0-.52l.12.16,0-.14H154a6.34,6.34,0,0,0-.51-.73,38.35,38.35,0,0,1-3.1-3.29c-2.45-3.33-4.45-7-7.34-10-.21-.23-.49-.53-.48-.8,0-1.45-1.16-1.94-2.13-2.87l-.66,1.53-.12,3-1.2-1.07h0l-.73-1-.33-.49-.16-.19v0l-.22-.25-.59-.73-.14-.16,0-.06-.2-.24-.83-1-.14-.18,0,0-.21-.24-.32-.48-.17-.21v0l-.22-.25h0l-.22-.27h0l-.14-.31v0a10.77,10.77,0,0,1-.83-2.56c-.22-2.95,1.05-4.92,3.82-6.23,2-.93,2.16-1.37,1.49-3.36a4.23,4.23,0,0,1-.13-.71c-.83-5-.5-10.13-1.79-15.12-.66-2.58-.57-5.35-.76-8a10.23,10.23,0,0,1,.24-2c1.45,3.12,2.85,6.25,4.36,9.34A13.24,13.24,0,0,1,142,88.54c-.13,3.75.83,7.33,1.53,11,.24,1.24.25,2.53.37,3.8a8,8,0,0,1-1.08-.25,7.5,7.5,0,0,0-6.79.35l-1,1.4c-.36,1.23.66,1.83.91,2.35l3.68-.73a7.4,7.4,0,0,1,1.63.27c1.63.61,3.23,1.31,4.83,2a5.19,5.19,0,0,0,.93,1,39.3,39.3,0,0,1,9.57,8c2.85,3.19,5.38,6.67,8.22,9.86,2.13,2.4,4.49,4.58,6.85,6.76a8.07,8.07,0,0,0,2.31,1l.45.22.76.49c1.61,1.19,3.54,1.15,5.37,1.12a22.41,22.41,0,0,1,7.36,1.26,14.76,14.76,0,0,0,2.91.5c2.28.27,4.62.17,6.77,1.21.78.38,1.65.55,2.46.86,2.1.8,4.19,1.63,6.29,2.46l1.38.79.74.48a17.18,17.18,0,0,0,1.24,1.55c2.69,2.65,5.45,5.22,8.1,7.9A42.8,42.8,0,0,1,226.62,167c.82,1.85,1.52,3.74,2.33,5.6.65,1.5,1.84,2.74,1.62,4.62s.53,2.32,2.33,2.4c.23,1.07.46,2.14.7,3.21h0l-.13.38s-.07.06-.06.08a.54.54,0,0,0,.1.16l0,1c-.45.56-.89,1.13.22,1.45l0,.77c-.61-.12-.93.14-.8.74.06.29-.52,1,.41.88,0,3.92,0,7.84,0,11.75,0,1.29-.13,2.58-.2,3.87a7.06,7.06,0,0,1-.23-1.2q0-6,0-12V189.6l-.45,0q0,8.19,0,16.37a1.1,1.1,0,0,0,.12.33l-1.13.7c-2.9,0-5.8-.05-8.7-.06q-9.71,0-19.4,0c-2.23,0-4.46,0-6.69,0-2.17-.17-2.2-.17-2.24-2.26,0-1.39.09-2.77.07-4.16q-.06-4.05-.21-8.09a19.7,19.7,0,0,0-.28-3.08,8.69,8.69,0,0,0-.89-1.88,10.27,10.27,0,0,0-.71-1.71,26.86,26.86,0,0,0-7.68-8c-1.47-1-3-2-4.51-2.85-1.77-1-3.62-1.89-5.42-2.85a5.17,5.17,0,0,1-.71-.63,8,8,0,0,0-1.07-.76c-1.44-.83-2.92-1.6-4.34-2.46-3.25-2-6.47-3.95-9.69-5.95-.4-.25-.75-.58-1.14-.86-1.2-.88-2.39-1.8-3.64-2.63-1.66-1.1-3.43-2.05-5.05-3.2-1.8-1.28-3.81-2.34-5.12-4.23-.12-.18-.41-.24-.62-.35-.71-1.22-1.43-2.44-2.11-3.68-1.5-2.73-3-5.44-4.42-8.21-1.22-2.39-2.26-4.87-3.43-7.28-1-2-2-3.93-3-5.89a5.25,5.25,0,0,1-.22-.55c-.59-1.61-1.1-3.26-1.79-4.83s-1.83-2.73-2.11-4.21a24.18,24.18,0,0,0-1.9-5.66C123.66,109,123,107.12,122.34,105.29Z" />
    <path class="cls-2"
        d="M135.78,72.88a10.23,10.23,0,0,0-.24,2c.19,2.69.1,5.46.76,8,1.29,5,1,10.11,1.79,15.12a4.23,4.23,0,0,0,.13.71c.67,2,.48,2.43-1.49,3.36-2.77,1.31-4,3.28-3.82,6.23a10.77,10.77,0,0,0,.83,2.56,7.54,7.54,0,0,1-.87-.69c-.42-.43-.79-.91-1.18-1.36l-.87-1.51-.17-1.63c-.16-3.25,1.15-5.63,4.19-6.91,1.18-.49.86-1.41.82-2.22-.16-2.66-.35-5.32-.62-8-.12-1.26-.44-2.5-.67-3.75-.33-2.8-.67-5.6-1-8.39-.07-1.44-.14-2.88-.22-4.32a5.52,5.52,0,0,0,.21-1.12c0-1.17-.13-2.34-.2-3.52C134,69.33,134.91,71.11,135.78,72.88Z" />
    <path class="cls-3"
        d="M345,89.51c-.18,2.56-.31,5.14-.54,7.7-.08,1,.47,1.33,1.18,1.68a6.57,6.57,0,0,1,4,5.11,9.5,9.5,0,0,1,0,1.51c-.05.31-.11.61-.16.92s0,.68,0,1c-.18.19-.39.36-.55.56l-2.24,2.8c.71-1.66,1.22-3.31.45-5.12a7,7,0,0,0-3.42-3.51c-2.06-1-2.32-2-1.68-4.15a19.2,19.2,0,0,0,.78-5,73.31,73.31,0,0,1,1.38-11.35c.51-2.93.56-5.94.79-8.92,0-.09-.15-.21-.23-.31l2.37-5-.45,8.4v0c-.12.65-.22,1.3-.35,1.94A45.82,45.82,0,0,0,345,89.51Z" />
    <path class="cls-4"
        d="M124,75.8a12.55,12.55,0,0,1,.21,1.48c0,.7.14,1.11,1,1.19a1.52,1.52,0,0,1,1,.87c.88,2.36.28,4.69-.38,7-.42,1.41-1.62,1.27-2.76,1,.15-1.32.3-2.63.42-3.94,0-.18-.14-.37-.21-.56l0,0a3.45,3.45,0,0,0,.39-1C123.82,79.83,123.92,77.81,124,75.8Z" />
    <path class="cls-4" d="M123,87.65l-.69,3.5c0-.2,0-.4,0-.59l0-1.66.13.12Z" />
    <path class="cls-4" d="M122.16,103.61l.17.74Z" />
    <path class="cls-4" d="M123.25,82.81l0-.18-.14.05.11.16Z" />
    <path class="cls-3" d="M347.32,67.06c-.08.1-.15.21-.23.32Z" />
    <path class="cls-5"
        d="M263.84,151l4-3.47a4.1,4.1,0,0,0,.8-.68c1.07-1.78,3.14-2.18,4.61-3.4.1-.08.3,0,.46,0a3.47,3.47,0,0,1-.5.78c-2.72,2.36-5.61,4.56-8.17,7.09A57.66,57.66,0,0,0,255.9,163a76.36,76.36,0,0,0-5.52,12.46,14.67,14.67,0,0,0-.6,2.66c-.29,1.56-1.44,1.59-2.65,1.54.17-1.18.35-2.36.52-3.54.58-1.24,1.15-2.48,1.72-3.71,1.31-.18,1.61-1.28,2-2.25.5-1.17.89-2.41,1.5-3.52a57.38,57.38,0,0,1,3.33-5.47c1.79-2.53,3.72-4.94,5.59-7.41C262.49,152.85,263.16,151.94,263.84,151Z" />
    <path class="cls-6"
        d="M304.83,136.2c.76-.63,1.51-1.27,2.27-1.88a42.76,42.76,0,0,0,8.83-9.34,59.74,59.74,0,0,1,10-10.86,55.56,55.56,0,0,1,5.53-4,27.8,27.8,0,0,1,2.5-1.42,5.15,5.15,0,0,1-1.06,1.2,39.05,39.05,0,0,0-9.35,7.92c-2.49,2.82-4.64,6-7.12,8.78-2,2.3-4.26,4.41-6.48,6.52a23.39,23.39,0,0,1-3.32,2.52A7.16,7.16,0,0,1,304.83,136.2Z" />
    <path class="cls-7"
        d="M327.88,138.37c1.05-.87,2.13-1.7,3.15-2.61s2.05-1.94,3.07-2.92a8.37,8.37,0,0,0,1.73-1.49c1.51-2.18,2.85-4.48,4.35-6.67,1.66-2.43,3.43-4.77,5.13-7.18.55-.78,1-1.62,1.49-2.44l0,.06,0-.06c.36-.2.83-.32,1.06-.62.9-1.25,1.79-2.52,2.58-3.85,1.26-2.14,1-2.93-1-4.16.05-.31.11-.61.16-.92.28,0,.56,0,.83,0,1.52.1,2.11,1,1.78,2.52-.67,3.07-2.61,5.38-4.47,7.76-2.22,2.84-4.42,5.71-6.51,8.65-1.44,2-2.66,4.23-4,6.32a19.55,19.55,0,0,1-6,5.7C330.15,137.17,329,137.74,327.88,138.37Z" />
    <path class="cls-4"
        d="M346.62,75.76a.38.38,0,0,1,.15,0c2.42.24,2.55.33,2.47,3.13a14.36,14.36,0,0,1-.56,3.5c-.51,1.81-.93,2-2.95,2.05l.88-8.64Z" />
    <path class="cls-8"
        d="M347.83,70.27c.88-1.7,1.57-3.51,3.51-4.43,1.52-.73,2.59-.5,3.14,1.06a21,21,0,0,1,.61,2.88c-1.44.31-1.9,0-2.56-1.36a6.81,6.81,0,0,0-.7-1,12.09,12.09,0,0,0-.86.9,12.66,12.66,0,0,0-.72,1.08A2.33,2.33,0,0,1,347.83,70.27Z" />
    <path class="cls-9"
        d="M323.88,134.34l-.14,1,1.78-.13c-.17.33-.35.66-.53,1l-1.29,2.38c-1.44-.45-1.94-1-1.9-2.35S322.82,134.6,323.88,134.34Z" />
    <path class="cls-10"
        d="M247.65,176.11c-.17,1.18-.35,2.36-.52,3.54-.17,1.57-.34,3.15-.52,4.72,0,.12-.19.22-.29.32h0l-.24-.95c0-1.36,0-2.73,0-4.09l.91-6v0c.09-.33.17-.65.26-1l1.44-3.35c-.36,1.29-.81,2.55-1.05,3.86A19,19,0,0,0,247.65,176.11Z" />
    <path class="cls-11"
        d="M247.73,206.29l-.63-2.46a1.17,1.17,0,0,0,.19-.41c.09-2.3.2-4.6.23-6.9,0-1.79-.06-3.59-.06-5.39,0-.24.18-.48.27-.7Z" />
    <path class="cls-3" d="M346.63,110.81l-.29.46Z" />
    <path class="cls-3" d="M345.92,111.79l-.17.21Z" />
    <path class="cls-3" d="M346.14,111.51l-.22.26Z" />
    <path class="cls-6"
        d="M208.45,144.64a17.6,17.6,0,0,1,2.74,1.77c3.16,3,6.32,5.94,9.31,9.08a39.62,39.62,0,0,1,5.14,6.43c2,3.28,4.25,6.51,5.08,10.4a2.57,2.57,0,0,0,.4,1,10.39,10.39,0,0,1,1.78,6.33c-1.8-.08-2.52-.66-2.33-2.4s-1-3.12-1.62-4.62c-.81-1.86-1.51-3.75-2.33-5.6a42.8,42.8,0,0,0-8.83-12.94c-2.65-2.68-5.41-5.25-8.1-7.9A17.18,17.18,0,0,1,208.45,144.64Z" />
    <path class="cls-12"
        d="M144.12,129.15c.29.56.52,1.15.86,1.68.62,1,1.29,1.87,1.94,2.81,1.11,1,2.21,2.06,3.34,3.07.67.59,1.38,1.12,2.08,1.67-.88-.48-1.8-.89-2.63-1.44a21,21,0,0,1-6.47-6.08c-1.53-2.42-2.94-4.92-4.58-7.26s-3.72-4.74-5.51-7.17c-1.6-2.19-3.1-4.47-4.61-6.73a2.44,2.44,0,0,1-.21-.92c-.47-2.48-.12-2.94,2.32-3l.18,1.63c-.09.58-.17,1.17-.25,1.75a6.78,6.78,0,0,0,1.67,4.21,12.33,12.33,0,0,1,1.06,1.57l1,1.13c1.43,1.85,2.86,3.71,4.3,5.56l1.41,1.77,1.47,2.07Q142.84,127.29,144.12,129.15Z" />
    <path class="cls-6"
        d="M146.08,108.66c1.5.89,3,1.77,4.49,2.68,4,2.45,7.11,5.94,10.31,9.29.91.94,1.56,2.11,2.39,3.13,1.9,2.35,3.74,4.76,5.78,7,1.49,1.63,3.26,3,4.91,4.5a8.07,8.07,0,0,1-2.31-1c-2.36-2.18-4.72-4.36-6.85-6.76-2.84-3.19-5.37-6.67-8.22-9.86a39.3,39.3,0,0,0-9.57-8A5.19,5.19,0,0,1,146.08,108.66Z" />
    <path class="cls-8"
        d="M133.37,76.51c.33,2.79.67,5.59,1,8.39-2,.17-2.36-.29-2.87-2.23a32.85,32.85,0,0,1-.72-4.08C130.59,77.22,131.51,76.52,133.37,76.51Z" />
    <path class="cls-7"
        d="M124.75,70.27a21.48,21.48,0,0,1,1.09-3.89c.67-1.34,1.75-1.4,3-.56a9.44,9.44,0,0,1,3.45,4.41c-1.8.5-2.46-.77-3.17-2a4.87,4.87,0,0,0-.76-.82c-.28.3-.7.56-.81.91C127.1,69.72,126.3,70.5,124.75,70.27Z" />
    <path class="cls-11"
        d="M233.18,203.9l-.56,2.42a1.1,1.1,0,0,1-.12-.33q0-8.19,0-16.37l.45,0v1.13q0,6,0,12A7.06,7.06,0,0,0,233.18,203.9Z" />
    <path class="cls-7"
        d="M156.18,138.87l0-.71a1.41,1.41,0,0,0,1.41-1.58,4.56,4.56,0,0,0-.59-1.58,6.92,6.92,0,0,0-.42-.68c1.24.19,2.11.9,2.05,1.68C158.5,138.3,158,138.82,156.18,138.87Z" />
    <path class="cls-13"
        d="M156.63,134.32a6.92,6.92,0,0,1,.42.68,4.56,4.56,0,0,1,.59,1.58,1.41,1.41,0,0,1-1.41,1.58l-.08-.48c0-.72,0-1.44,0-2.16l.07-1.23Z" />
    <path class="cls-13"
        d="M233.6,182.86l.6.09c-.13,1-.26,2-.4,2.94-1.11-.32-.67-.89-.22-1.45l0-1.58Z" />
    <path class="cls-13"
        d="M233.76,186.66l-.13.42v.23l-.25,1c-.93.1-.35-.59-.41-.88C232.83,186.8,233.15,186.54,233.76,186.66Z" />
    <path class="cls-6" d="M206.33,143.37l1.38.79Z" />
    <path class="cls-6" d="M174.41,135.47l.76.49Z" />
    <path class="cls-2" d="M134.49,112l-.17-.21Z" />
    <path class="cls-2" d="M134.31,111.78l-.22-.25Z" />
    <path class="cls-13"
        d="M233.5,183.24a.76.76,0,0,1,.06.16s0,0,0,.08a.54.54,0,0,1-.1-.16S233.48,183.27,233.5,183.24Z" />
    <path class="cls-2" d="M134.09,111.53l-.22-.27Z" />
    <path class="cls-2"
        d="M133.88,111.27c0-.1-.09-.21-.14-.31C133.79,111.06,133.83,111.17,133.88,111.27Z" />
    <path class="cls-7" d="M247.06,173.62l-.91,6h-.24Q246.48,176.64,247.06,173.62Z" />
    <path class="cls-13"
        d="M245.91,179.65h.24c0,1.36,0,2.73,0,4.09a.31.31,0,0,1,0,.23C246,182.53,246,181.09,245.91,179.65Z" />
    <path class="cls-10" d="M249.71,166.68l-1,2.64Z" />
    <path class="cls-10" d="M250.43,165.24l-.72,1.44Z" />
    <path class="cls-10" d="M251.15,164l-.48.78Z" />
    <path class="cls-7" d="M247.31,172.67c-.09.32-.17.64-.26,1Z" />
    <path class="cls-1" d="M246.11,184a.31.31,0,0,0,0-.23l.24.95Z" />
    <path class="cls-10" d="M250.67,164.76l-.25.49Z" />
    <path class="cls-12" d="M234.05,178.34c-.14-.05-.4-.09-.41-.16-.18-1.59-.33-3.2-.48-4.8Z" />
    <path class="cls-12" d="M233.18,173.42l-.24-.92Z" />
    <path class="cls-1" d="M233.62,187.31v-.23A.36.36,0,0,1,233.62,187.31Z" />
    <path class="cls-14"
        d="M263.84,151c-.68.91-1.35,1.82-2,2.72-1.87,2.47-3.8,4.88-5.59,7.41a57.38,57.38,0,0,0-3.33,5.47c-.61,1.11-1,2.35-1.5,3.52-.41,1-.71,2.07-2,2.25a15.53,15.53,0,0,1,.94-2.94,96.7,96.7,0,0,1,5.78-9.86,104.6,104.6,0,0,1,7.24-8.26A2.17,2.17,0,0,1,263.84,151Z" />
    <path class="cls-13"
        d="M349.46,106.43c2,1.23,2.24,2,1,4.16-.79,1.33-1.68,2.6-2.58,3.85-.23.3-.7.42-1.06.62a38.9,38.9,0,0,0,2.45-4.53,9.75,9.75,0,0,0,.17-3.08C349.43,107.11,349.45,106.77,349.46,106.43Z" />
    <path class="cls-13"
        d="M346.8,115.06c-.49.82-.94,1.66-1.49,2.44-1.7,2.41-3.47,4.75-5.13,7.18-1.5,2.19-2.84,4.49-4.35,6.67a8.37,8.37,0,0,1-1.73,1.49c1.43-2.25,2.83-4.53,4.31-6.76s3.08-4.6,4.73-6.81C344.26,117.79,345.58,116.46,346.8,115.06Z" />
    <path class="cls-4"
        d="M329.05,132.88q2.59-3.34,5.2-6.68c.13-.16.41-.2.61-.3-1.2,2.66-2.48,5.27-5.14,6.84A2,2,0,0,1,329.05,132.88Z" />
    <path class="cls-4"
        d="M334.85,125.91c.49-.72,1-1.45,1.45-2.17C335.82,124.46,335.34,125.19,334.85,125.91Z" />
    <path class="cls-4" d="M336.29,123.75,337,123Z" />
    <path class="cls-4" d="M337,123l.26-.5Z" />
    <path class="cls-4" d="M337.25,122.56l.27-.28Z" />
    <path class="cls-9" d="M325.51,135.28l.06-.22a.38.38,0,0,0,.15,0Z" />
    <path class="cls-4"
        d="M144.66,124.69c1.43,1.74,2.91,3.46,4.3,5.24.72.92,1.3,2,1.94,2.95L148.24,131l-.23-.24h0l-.23-.26h0l-.21-.29h0l-.48-.71h0c-.53-1-1.07-2-1.6-3C145.21,125.87,144.94,125.28,144.66,124.69Z" />
    <path class="cls-9" d="M156.16,135.52c0,.72,0,1.44,0,2.16l-.43-.09-1.45-2.26.41,0Z" />
    <path class="cls-4" d="M150.87,132.86h0Z" />
    <path class="cls-4" d="M144.66,124.71l-.73-.73Z" />
    <path class="cls-4" d="M144,124l-.25-.5Z" />
    <path class="cls-4" d="M143.71,123.52l-.26-.26Z" />
</svg>